<svg xmlns="http://www.w3.org/2000/svg" xmlns:xlink="http://www.w3.org/1999/xlink" viewBox="0 0 360 488.5"><defs><style>.cls-1{stroke:#841310;stroke-miterlimit:10;opacity:0.74;fill:url(#linear-gradient);}</style><linearGradient id="linear-gradient" x1="359.5" y1="244.25" x2="0.5" y2="244.25" gradientUnits="userSpaceOnUse"><stop offset="0" stop-color="#980004" stop-opacity="0.74"/><stop offset="0.58" stop-color="#6b030b" stop-opacity="0.74"/></linearGradient></defs><g id="Layer_2" data-name="Layer 2"><g id="Layer_4" data-name="Layer 4"><g id="Layer_1-2" data-name="Layer 1"><path class="cls-1" d="M358.92,1.49,259.5.5l-73,48.55H1a.52.52,0,0,0-.52.52V487.4a.6.6,0,0,0,.6.6H358.89a.61.61,0,0,0,.61-.61V2.07A.58.58,0,0,0,358.92,1.49ZM355.5,483.43a.61.61,0,0,1-.61.61H5.11a.61.61,0,0,1-.61-.61V53.53A.51.51,0,0,1,5,53H188.5l72-48.56,94.42,1a.58.58,0,0,1,.58.59Z"/></g></g></g></svg>